<svg width="33" height="32" viewBox="0 0 33 32" fill="none" xmlns="http://www.w3.org/2000/svg">
<path d="M4.38033 0H27.9537C30.2737 0 32.167 1.884 32.167 4.21333V27.788C32.167 30.108 30.283 32 27.9537 32H4.38033C2.06033 32 0.166992 30.1173 0.166992 27.788V4.20267C0.166992 1.884 2.04966 0 4.38033 0Z" fill="#5468FF"/>
<path d="M19.5017 7.14354V6.0462C19.5014 5.67794 19.3549 5.32486 19.0944 5.06458C18.8338 4.8043 18.4806 4.65813 18.1124 4.6582H14.8737C14.5054 4.65813 14.1522 4.8043 13.8917 5.06458C13.6311 5.32486 13.4846 5.67794 13.4844 6.0462V7.17287C13.4844 7.2982 13.6004 7.3862 13.727 7.35687C14.6432 7.09234 15.5921 6.95858 16.5457 6.95954C17.4697 6.95954 18.3844 7.08487 19.2684 7.32754C19.3857 7.35687 19.5017 7.2702 19.5017 7.14354ZM10.6257 8.57954L10.0724 8.0262C9.94343 7.89719 9.79034 7.79484 9.62185 7.72501C9.45335 7.65518 9.27275 7.61924 9.09035 7.61924C8.90796 7.61924 8.72735 7.65518 8.55886 7.72501C8.39036 7.79484 8.23728 7.89719 8.10835 8.0262L7.44702 8.6862C7.31773 8.8147 7.21513 8.9675 7.14512 9.1358C7.07511 9.3041 7.03906 9.48459 7.03906 9.66687C7.03906 9.84915 7.07511 10.0296 7.14512 10.1979C7.21513 10.3662 7.31773 10.519 7.44702 10.6475L7.99102 11.1915C8.07902 11.2782 8.20569 11.2582 8.28302 11.1715C8.60397 10.7308 8.95835 10.3153 9.34302 9.92887C9.73093 9.53964 10.1501 9.18289 10.5964 8.8622C10.6934 8.80354 10.703 8.66754 10.6257 8.57954ZM16.5361 12.0635V16.8102C16.5361 16.9462 16.6828 17.0435 16.8081 16.9755L21.0281 14.7915C21.1241 14.7435 21.1534 14.6262 21.1054 14.5302C20.2308 12.9955 18.6068 11.9475 16.7308 11.8795C16.6334 11.8795 16.5361 11.9569 16.5361 12.0635ZM16.5361 23.4982C13.0174 23.4982 10.1588 20.6435 10.1588 17.1302C10.1588 13.6169 13.0174 10.7635 16.5361 10.7635C20.0561 10.7635 22.9137 13.6169 22.9137 17.1302C22.9137 20.6435 20.0657 23.4982 16.5361 23.4982ZM16.5361 8.08487C11.5388 8.08487 7.48542 12.1329 7.48542 17.1302C7.48542 22.1289 11.5388 26.1675 16.5361 26.1675C21.5334 26.1675 25.5868 22.1195 25.5868 17.1209C25.5868 12.1222 21.5428 8.08487 16.5361 8.08487Z" fill="white"/>
</svg>
