<svg width="33" height="32" viewBox="0 0 33 32" fill="none" xmlns="http://www.w3.org/2000/svg">
<g clip-path="url(#clip0)">
<path d="M32.495 16.7991C32.495 14.109 30.8234 11.7845 28.3421 10.8704C28.4472 10.3018 28.4996 9.72471 28.4988 9.14649C28.4988 4.15787 24.4505 0.109619 19.4619 0.109619C16.5628 0.109619 13.8465 1.49387 12.1488 3.87062C11.313 3.21762 10.2944 2.87812 9.2235 2.87812C6.5855 2.87812 4.41775 5.01974 4.41775 7.68387C4.41775 8.25849 4.52225 8.83312 4.705 9.35549C2.19775 10.2174 0.5 12.6202 0.5 15.2842C0.5 17.9745 2.17162 20.3251 4.67887 21.2392C4.5745 21.7877 4.52225 22.3624 4.52225 22.963C4.52225 27.9255 8.5705 31.9739 13.533 31.9739C16.4583 31.9739 19.1485 30.5635 20.8461 28.2129C21.6819 28.8657 22.7266 29.2315 23.7975 29.2315C26.4355 29.2315 28.6033 27.0897 28.6033 24.4257C28.6033 23.8511 28.4988 23.2765 28.316 22.7541C30.771 21.8661 32.4949 19.4632 32.4949 16.7991H32.495Z" fill="white"/>
<path d="M13.0107 13.7954L20.1411 17.0603L27.3498 10.7397C27.4549 10.2151 27.5073 9.6814 27.5064 9.14643C27.5064 4.70643 23.9021 1.10205 19.462 1.10205C16.7979 1.10205 14.3167 2.40793 12.828 4.6018L11.6265 10.8181L13.0107 13.7956V13.7954Z" fill="#F4BD19"/>
<path d="M5.61903 21.3438C5.51465 21.8662 5.4624 22.4147 5.4624 22.9632C5.4624 27.4032 9.09277 31.0337 13.5329 31.0337C16.2231 31.0337 18.7044 29.7017 20.2191 27.5077L21.3945 21.2916L19.8013 18.2618L12.6449 14.9971L5.61903 21.3438Z" fill="#3CBEB1"/>
<path d="M5.56716 8.98974L10.4513 10.139L11.5482 4.57574C10.8692 4.05336 10.0594 3.79224 9.19753 3.79224C7.08191 3.79224 5.33203 5.51599 5.33203 7.65774C5.33203 8.10174 5.41041 8.57186 5.56703 8.98974H5.56716Z" fill="#E9478C"/>
<path d="M5.14918 10.165C2.9553 10.8703 1.44043 12.9859 1.44043 15.2843C1.44043 17.5305 2.82468 19.5417 4.91418 20.3252L11.7833 14.1089L10.5296 11.4189L5.14918 10.1652V10.165Z" fill="#2C458F"/>
<path d="M21.4731 27.4813C22.1521 28.0038 22.9619 28.2911 23.7976 28.2911C25.9133 28.2911 27.6631 26.5673 27.6631 24.4256C27.6631 23.9555 27.5848 23.5113 27.4281 23.0935L22.544 21.9443L21.4731 27.4813Z" fill="#95C63D"/>
<path d="M22.4653 20.6648L27.8457 21.9185C30.0396 21.1873 31.5545 19.0978 31.5545 16.7993C31.5545 14.553 30.1702 12.5682 28.0807 11.7585L21.0288 17.9224L22.4653 20.6649V20.6648Z" fill="#176655"/>
</g>
<defs>
<clipPath id="clip0">
<rect width="32" height="32" fill="white" transform="translate(0.5)"/>
</clipPath>
</defs>
</svg>
