<svg width="44" height="51" viewBox="0 0 44 51" fill="none" xmlns="http://www.w3.org/2000/svg">
<path fill-rule="evenodd" clip-rule="evenodd" d="M41.7607 33.2469C40.9449 34.4803 40.325 36 38.6664 36C35.875 36 35.724 31.6957 32.9311 31.6957C30.1381 31.6957 30.2891 36 27.4976 36C24.7062 36 24.5552 31.6957 21.7623 31.6957C18.9694 31.6957 19.1203 36 16.3288 36C13.5374 36 13.3865 31.6957 10.5935 31.6957C7.80056 31.6957 7.95149 36 5.16004 36C4.28275 36 3.66626 35.5749 3.1466 34.9918C1.14914 31.5156 0 27.4421 0 23.087C0 10.3364 9.84974 0 22 0C34.1503 0 44 10.3364 44 23.087C44 26.7327 43.1947 30.1811 41.7607 33.2469Z" fill="#FB70A9"/>
<mask id="mask0" mask-type="alpha" maskUnits="userSpaceOnUse" x="7" y="27" width="29" height="24">
<path d="M13.2143 30.9676V40.5303C13.2143 42.2463 11.8232 43.6374 10.1071 43.6374C8.39112 43.6374 7 42.2463 7 40.5303L7 28.9862C7.57992 27.9217 8.24241 27 9.43677 27C11.3811 27 12.0604 29.4424 13.2143 30.9676ZM24.9524 31.4658V46.5876C24.9524 48.4943 23.4067 50.04 21.5 50.04C19.5933 50.04 18.0476 48.4943 18.0476 46.5876V29.4727C18.6977 28.2192 19.3679 27 20.7415 27C22.9164 27 23.5085 30.0559 24.9524 31.4658ZM36 31.1883V42.1664C36 43.8824 34.6089 45.2735 32.8929 45.2735C31.1768 45.2735 29.7857 43.8824 29.7857 42.1664V28.6732C30.3267 27.7472 30.9709 27 32.0463 27C34.0875 27 34.7345 29.6918 36 31.1883Z" fill="white"/>
</mask>
<g mask="url(#mask0)">
<path d="M13.2143 30.9676V40.5303C13.2143 42.2463 11.8232 43.6374 10.1071 43.6374C8.39112 43.6374 7 42.2463 7 40.5303L7 28.9862C7.57992 27.9217 8.24241 27 9.43677 27C11.3811 27 12.0604 29.4424 13.2143 30.9676ZM24.9524 31.4658V46.5876C24.9524 48.4943 23.4067 50.04 21.5 50.04C19.5933 50.04 18.0476 48.4943 18.0476 46.5876V29.4727C18.6977 28.2192 19.3679 27 20.7415 27C22.9164 27 23.5085 30.0559 24.9524 31.4658ZM36 31.1883V42.1664C36 43.8824 34.6089 45.2735 32.8929 45.2735C31.1768 45.2735 29.7857 43.8824 29.7857 42.1664V28.6732C30.3267 27.7472 30.9709 27 32.0463 27C34.0875 27 34.7345 29.6918 36 31.1883Z" fill="#4E56A6"/>
</g>
<mask id="mask1" mask-type="alpha" maskUnits="userSpaceOnUse" x="7" y="21" width="29" height="17">
<path d="M13.2143 33.8985C12.6631 33.2236 12.0107 32.7227 11.0671 32.7227C8.82646 32.7227 8.41517 35.5466 7 36.8197L7 24.6394C7 22.9233 8.39112 21.5322 10.1071 21.5322C11.8232 21.5322 13.2143 22.9233 13.2143 24.6394V33.8985ZM24.9524 34.1164C24.3645 33.3342 23.6774 32.7227 22.6348 32.7227C20.1419 32.7227 19.9134 36.2181 18.0476 37.1844V31.7977C18.0476 29.891 19.5933 28.3453 21.5 28.3453C23.4067 28.3453 24.9524 29.891 24.9524 31.7977V34.1164ZM36 33.5118C35.5217 33.0409 34.9546 32.7227 34.2024 32.7227C31.7876 32.7227 31.4976 36.0028 29.7857 37.0865V26.1534C29.7857 24.4374 31.1768 23.0462 32.8929 23.0462C34.6089 23.0462 36 24.4374 36 26.1534V33.5118Z" fill="white"/>
</mask>
<g mask="url(#mask1)">
<path d="M13.2143 33.8985C12.6631 33.2236 12.0107 32.7227 11.0671 32.7227C8.82646 32.7227 8.41517 35.5466 7 36.8197L7 24.6394C7 22.9233 8.39112 21.5322 10.1071 21.5322C11.8232 21.5322 13.2143 22.9233 13.2143 24.6394V33.8985ZM24.9524 34.1164C24.3645 33.3342 23.6774 32.7227 22.6348 32.7227C20.1419 32.7227 19.9134 36.2181 18.0476 37.1844V31.7977C18.0476 29.891 19.5933 28.3453 21.5 28.3453C23.4067 28.3453 24.9524 29.891 24.9524 31.7977V34.1164ZM36 33.5118C35.5217 33.0409 34.9546 32.7227 34.2024 32.7227C31.7876 32.7227 31.4976 36.0028 29.7857 37.0865V26.1534C29.7857 24.4374 31.1768 23.0462 32.8929 23.0462C34.6089 23.0462 36 24.4374 36 26.1534V33.5118Z" fill="black" fill-opacity="0.298514"/>
</g>
<path fill-rule="evenodd" clip-rule="evenodd" d="M41.7607 33.2469C40.9449 34.4803 40.325 36 38.6664 36C35.875 36 35.724 31.6957 32.9311 31.6957C30.1381 31.6957 30.2891 36 27.4976 36C24.7062 36 24.5552 31.6957 21.7623 31.6957C18.9694 31.6957 19.1203 36 16.3288 36C13.5374 36 13.3865 31.6957 10.5935 31.6957C7.80056 31.6957 7.95149 36 5.16004 36C4.28275 36 3.66626 35.5749 3.1466 34.9918C1.14914 31.5156 0 27.4421 0 23.087C0 10.3364 9.84974 0 22 0C34.1503 0 44 10.3364 44 23.087C44 26.7327 43.1947 30.1811 41.7607 33.2469Z" fill="#FB70A9"/>
<path fill-rule="evenodd" clip-rule="evenodd" d="M37 35.5401C42.7652 26.9635 42.9142 17.4502 37.4469 7C41.4995 11.1517 44 16.8491 44 23.1356C44 26.7676 43.1653 30.203 41.6789 33.2573C40.8333 34.486 40.1909 36 38.4717 36C37.8833 36 37.4081 35.8227 37 35.5401Z" fill="#E24CA6"/>
<path fill-rule="evenodd" clip-rule="evenodd" d="M20.8205 28.8462C28.471 28.8462 31.6923 24.4079 31.6923 18.1049C31.6923 11.8019 26.8249 6 20.8205 6C14.8162 6 9.94873 11.8019 9.94873 18.1049C9.94873 24.4079 13.17 28.8462 20.8205 28.8462Z" fill="white"/>
<path d="M17.8972 18.4614C20.1489 18.4614 21.9742 16.4467 21.9742 13.9614C21.9742 11.4761 20.1489 9.46143 17.8972 9.46143C15.6456 9.46143 13.8203 11.4761 13.8203 13.9614C13.8203 16.4467 15.6456 18.4614 17.8972 18.4614Z" fill="#030776"/>
<path d="M17.2177 14.9998C18.3435 14.9998 19.2561 14.0699 19.2561 12.9229C19.2561 11.7758 18.3435 10.8459 17.2177 10.8459C16.0918 10.8459 15.1792 11.7758 15.1792 12.9229C15.1792 14.0699 16.0918 14.9998 17.2177 14.9998Z" fill="white"/>
</svg>
