<svg width="40" height="40" viewBox="0 0 40 40" fill="none" xmlns="http://www.w3.org/2000/svg">
<path d="M29.3436 33.5553L19.9999 36L10.6562 33.5553L8.5 10.8572H31.5L29.3436 33.5553Z" fill="#2062AF"/>
<path d="M20 12V33.7086L20.0208 33.7143L27.4786 31.703L29.2 12H20Z" fill="#3C9CD7"/>
<path d="M14.6383 7.0955V5.6174H16.6893V4H13.1001V8.57142H16.6893V7.0955H14.6383ZM20.3787 5.6174H21.8126V4H18.2231V5.6174C18.7033 6.12235 18.9538 6.36404 19.6483 7.09434C19.2423 7.09434 18.2231 7.09587 18.2231 7.0958V8.57142H21.8126V7.0955L20.3787 5.6174ZM25.4662 5.6174H26.9V4H23.3104V5.6174C23.7906 6.12235 24.0412 6.36404 24.7357 7.09434C24.3299 7.09434 23.3104 7.09587 23.3104 7.0958V8.57142H26.9001V7.0955L25.4662 5.6174Z" fill="black"/>
<path d="M19.7632 18.2278L13.1001 20.8412L13.3211 23.4286L19.7632 20.8346L26.616 18.0754L26.9001 15.4286L19.7632 18.2278Z" fill="white"/>
<path d="M13.1001 20.5856L13.3289 23.4285L20.0001 20.5784V17.7142L13.1001 20.5856Z" fill="url(#paint0_linear)"/>
<path d="M26.9 15.4286L20 18.3874V21.1429L26.6253 18.2263L26.9 15.4286Z" fill="url(#paint1_linear)"/>
<path d="M13.1001 21.1428L13.3301 23.8546L23.6144 23.8857L23.3843 27.5013L20.0002 28.4052L16.7471 27.6259L16.5499 25.3817H13.5272L13.9215 29.7143L20.0331 31.4285L26.1115 29.7454L26.9001 21.1428H13.1001Z" fill="url(#paint2_linear)"/>
<path opacity="0.05" d="M20.0001 21.1428H13.1001L13.3289 23.8546L20.0001 23.8749V21.1428ZM20.0001 28.3965L19.9674 28.4052L16.7299 27.626L16.5337 25.3818H13.5253L13.9176 29.7143L20.0001 31.4285V28.3965Z" fill="black"/>
<path d="M13.1001 15.4286H26.9001L26.6278 17.7143H13.433L13.1001 15.4286Z" fill="url(#paint3_linear)"/>
<path opacity="0.05" d="M20.0001 15.4286H13.1001L13.4301 17.7143H20.0001V15.4286Z" fill="black"/>
<defs>
<linearGradient id="paint0_linear" x1="16.5501" y1="23.4286" x2="16.5501" y2="17.7143" gradientUnits="userSpaceOnUse">
<stop offset="0.387" stop-color="#D1D3D4" stop-opacity="0"/>
<stop offset="1" stop-color="#D1D3D4"/>
</linearGradient>
<linearGradient id="paint1_linear" x1="23.4499" y1="21.1429" x2="23.4499" y2="15.4287" gradientUnits="userSpaceOnUse">
<stop offset="0.387" stop-color="#D1D3D4" stop-opacity="0"/>
<stop offset="1" stop-color="#D1D3D4"/>
</linearGradient>
<linearGradient id="paint2_linear" x1="13.1001" y1="26.2857" x2="26.9" y2="26.2857" gradientUnits="userSpaceOnUse">
<stop stop-color="#E8E7E5"/>
<stop offset="1" stop-color="white"/>
</linearGradient>
<linearGradient id="paint3_linear" x1="13.1001" y1="16.5714" x2="26.9" y2="16.5714" gradientUnits="userSpaceOnUse">
<stop stop-color="#E8E7E5"/>
<stop offset="1" stop-color="white"/>
</linearGradient>
</defs>
</svg>
