<svg width="53" height="37" viewBox="0 0 53 37" fill="none" xmlns="http://www.w3.org/2000/svg">
<path d="M6.44181 0.992065H6.90694C8.52172 1.02704 10.1102 1.67398 11.251 2.81924C10.8298 3.24762 10.3998 3.65851 9.9873 4.08689C9.34666 3.50989 8.57437 3.06402 7.73188 2.90666C6.48569 2.64439 5.14297 2.88043 4.09863 3.58857C2.95776 4.33168 2.18547 5.59059 2.01873 6.93693C1.83443 8.26578 2.2118 9.66457 3.08062 10.6962C3.91434 11.7016 5.18685 12.331 6.50324 12.3747C7.73188 12.4447 9.01317 12.0687 9.90832 11.212C10.6104 10.6088 10.9351 9.6908 11.0404 8.79907C9.58361 8.79907 8.1268 8.80781 6.66999 8.79907V6.99812H12.8044C13.1203 8.93021 12.664 11.1071 11.1896 12.4884C10.2067 13.4675 8.84643 14.0445 7.45982 14.1582C6.1171 14.2893 4.7305 14.0358 3.53697 13.3889C2.10649 12.6283 0.965611 11.3431 0.40395 9.83068C-0.122608 8.44063 -0.131384 6.86699 0.36007 5.4682C0.807644 4.1918 1.66769 3.06402 2.77346 2.2772C3.83535 1.49913 5.12542 1.07075 6.44181 0.992065Z" fill="#3780FF"/>
<path d="M41.6333 1.44666H43.5113V13.9309C42.8883 13.9309 42.2564 13.9396 41.6333 13.9221C41.6421 9.76946 41.6333 5.60806 41.6333 1.44666V1.44666Z" fill="#38B137"/>
<path d="M16.9817 5.77421C18.1401 5.55565 19.3951 5.80043 20.3517 6.49109C21.2205 7.10306 21.826 8.06473 22.0103 9.11382C22.2473 10.329 21.9489 11.6579 21.159 12.6195C20.3078 13.6949 18.9124 14.2719 17.5521 14.1844C16.3059 14.1145 15.0948 13.4938 14.3577 12.4797C13.5239 11.3606 13.3221 9.82196 13.7784 8.51059C14.2348 7.10306 15.5249 6.02774 16.9817 5.77421V5.77421ZM17.245 7.43527C16.7711 7.55767 16.3323 7.82868 16.0163 8.21335C15.1651 9.22748 15.2177 10.8798 16.1567 11.824C16.6921 12.366 17.4995 12.6195 18.2454 12.4709C18.9387 12.3485 19.5443 11.8852 19.8777 11.2732C20.457 10.2329 20.2902 8.7991 19.4038 7.98605C18.8334 7.4615 17.9997 7.24294 17.245 7.43527Z" fill="#FA3913"/>
<path d="M26.2851 5.77412C27.6102 5.52059 29.0583 5.88777 30.05 6.81447C31.6647 8.25697 31.8403 10.9584 30.4624 12.6195C29.6287 13.6685 28.2772 14.2455 26.9433 14.1844C25.6708 14.1494 24.4158 13.5199 23.6611 12.4796C22.8098 11.3343 22.6255 9.76067 23.1082 8.42308C23.5908 7.05926 24.8546 6.01891 26.2851 5.77412V5.77412ZM26.5483 7.43518C26.0744 7.55758 25.6356 7.82859 25.3197 8.20452C24.4772 9.20116 24.5123 10.8273 25.4162 11.7802C25.9516 12.3484 26.7853 12.6282 27.5576 12.4708C28.2421 12.3397 28.8564 11.8851 29.1899 11.2731C29.7603 10.224 29.5936 8.79026 28.6985 7.97721C28.128 7.45267 27.2943 7.24285 26.5483 7.43518Z" fill="#FCBD06"/>
<path d="M34.1732 6.28096C35.1824 5.65151 36.5251 5.47666 37.6134 6.01869C37.9556 6.16731 38.2365 6.42084 38.5085 6.67437C38.5173 6.43833 38.5085 6.19354 38.5173 5.94875C39.1053 5.95749 39.6933 5.94875 40.29 5.95749V13.6683C40.2813 14.8311 39.9829 16.0638 39.1404 16.9118C38.2189 17.8472 36.806 18.1357 35.5335 17.9434C34.1732 17.7423 32.9884 16.7544 32.4619 15.5042C32.9884 15.2507 33.5413 15.0496 34.0854 14.8136C34.3926 15.5305 35.0157 16.1424 35.7967 16.2823C36.5778 16.4222 37.4817 16.2299 37.9907 15.5829C38.5348 14.9185 38.5348 14.0093 38.5085 13.1962C38.1048 13.5896 37.6397 13.9393 37.078 14.0705C35.8582 14.4114 34.5155 13.9918 33.5764 13.17C32.6286 12.3482 32.067 11.0806 32.1196 9.82165C32.1459 8.39664 32.9533 7.02407 34.1732 6.28096V6.28096ZM35.9898 7.4C35.4545 7.48742 34.9542 7.78466 34.612 8.19556C33.787 9.17471 33.787 10.7396 34.6208 11.7013C35.0947 12.2695 35.8582 12.5843 36.5954 12.5056C37.2887 12.4356 37.9293 11.9985 38.2716 11.3953C38.8508 10.3724 38.7542 8.98238 37.9732 8.09065C37.4905 7.53988 36.7182 7.26886 35.9898 7.4V7.4Z" fill="#3780FF"/>
<path d="M45.7676 6.72691C46.8207 5.74776 48.4443 5.41555 49.7958 5.93135C51.0771 6.41219 51.8933 7.62739 52.3057 8.87756C50.4013 9.66438 48.5057 10.4425 46.6013 11.2293C46.8646 11.7276 47.2683 12.1822 47.8124 12.3658C48.5759 12.6368 49.4886 12.5406 50.1293 12.0336C50.3838 11.8412 50.5856 11.5877 50.7787 11.3429C51.2614 11.6664 51.7441 11.9811 52.2267 12.3046C51.5422 13.3275 50.3926 14.0443 49.1552 14.158C47.7861 14.3241 46.3293 13.7996 45.4429 12.733C43.9861 11.0544 44.1265 8.23936 45.7676 6.72691V6.72691ZM46.7067 8.34427C46.4083 8.77265 46.2854 9.2972 46.2942 9.813C47.5667 9.28845 48.8392 8.76391 50.1117 8.23062C49.9011 7.74104 49.3921 7.4438 48.8743 7.36511C48.0406 7.21649 47.1718 7.66236 46.7067 8.34427V8.34427Z" fill="#FA3913"/>
<path d="M14.6499 32.935H8.42086L7.02188 36.7967H5L10.6776 22H12.3931L18.081 36.7967H16.0693L14.6499 32.935ZM9.01313 31.3293H14.0678L11.5354 24.4085L9.01313 31.3293Z" fill="#636363"/>
<path d="M22.043 31.0041V36.7967H20.0824V22H25.566C27.193 22 28.4661 22.4133 29.3851 23.2398C30.311 24.0664 30.7739 25.1606 30.7739 26.5224C30.7739 27.9587 30.3212 29.0664 29.4158 29.8455C28.5171 30.6179 27.2271 31.0041 25.5456 31.0041H22.043ZM22.043 29.4085H25.566C26.6144 29.4085 27.4177 29.1646 27.9759 28.6768C28.5342 28.1822 28.8133 27.4709 28.8133 26.5427C28.8133 25.6619 28.5342 24.9573 27.9759 24.4289C27.4177 23.9004 26.6518 23.626 25.6783 23.6057H22.043V29.4085Z" fill="#636363"/>
<path d="M35.3793 36.7967H33.4187V22H35.3793V36.7967Z" fill="#636363"/>
<path d="M45.1109 33.8801C45.1109 33.372 44.9168 32.979 44.5288 32.7012C44.1476 32.4167 43.477 32.1728 42.5171 31.9695C41.5641 31.7663 40.805 31.5224 40.24 31.2378C39.6817 30.9533 39.2665 30.6145 38.9942 30.2215C38.7287 29.8286 38.5959 29.3611 38.5959 28.8191C38.5959 27.918 38.9771 27.1558 39.7396 26.5325C40.5089 25.9092 41.4892 25.5976 42.6805 25.5976C43.9331 25.5976 44.9475 25.9194 45.7236 26.563C46.5064 27.2066 46.8979 28.0298 46.8979 29.0325H44.9985C44.9985 28.5176 44.7773 28.0738 44.3348 27.7012C43.8991 27.3286 43.3477 27.1423 42.6805 27.1423C41.9929 27.1423 41.4551 27.2913 41.0671 27.5894C40.6791 27.8875 40.485 28.2771 40.485 28.7581C40.485 29.2121 40.6654 29.5542 41.0263 29.7846C41.3871 30.0149 42.0372 30.2351 42.9767 30.4451C43.9229 30.6551 44.6888 30.9058 45.2743 31.1972C45.8597 31.4885 46.292 31.8408 46.5711 32.2541C46.857 32.6606 47 33.1585 47 33.748C47 34.7304 46.6052 35.5196 45.8155 36.1159C45.0258 36.7053 44.0012 37 42.7418 37C41.8568 37 41.0739 36.8442 40.3931 36.5325C39.7124 36.2209 39.178 35.7873 38.7899 35.2317C38.4087 34.6694 38.2181 34.063 38.2181 33.4126H40.1072C40.1413 34.0427 40.3931 34.544 40.8629 34.9167C41.3394 35.2825 41.9657 35.4654 42.7418 35.4654C43.4566 35.4654 44.0284 35.3232 44.4573 35.0386C44.893 34.7473 45.1109 34.3611 45.1109 33.8801Z" fill="#636363"/>
</svg>
