<svg width="294" height="300" viewBox="0 0 294 300" fill="none" xmlns="http://www.w3.org/2000/svg">
<path d="M222 150V150.3V150.7V151V151.3L222.1 151.7V152V152.3L222.2 152.7V153L222.3 153.3L222.4 153.7V154L222.5 154.4L222.6 154.7L222.7 155.1V155.5L222.8 155.8L222.9 156.2L223 156.6L223.1 156.9L223.3 157.3L223.4 157.7L223.5 158.1L223.6 158.5L223.7 158.9L223.9 159.3L224 159.8L224.1 160.2L224.3 160.6L224.4 161L224.6 161.5L224.7 161.9L224.9 162.4L225 162.9L225.2 163.4L225.4 163.8L225.5 164.3L225.7 164.8L225.9 165.3L226 165.9L226.2 166.4L226.3 166.9L226.5 167.5L226.7 168L226.8 168.6L227 169.2L227.2 169.7L227.3 170.3L227.5 170.9L227.7 171.5L227.8 172.2L228 172.8L228.1 173.4L228.3 174.1L228.4 174.7L228.6 175.4L228.7 176.1L228.8 176.8L229 177.5L229.1 178.2L229.2 178.9L229.3 179.7L229.5 180.4L229.6 181.2L229.7 181.9L229.8 182.7V183.5L229.9 184.3L230 185.1L230.1 185.9V186.7L230.2 187.5V188.4V189.2L230.3 190.1V191V191.8V192.7L230.2 193.6V194.5V195.4L230.1 196.4V197.3L230 198.2L229.9 199.2L229.8 200.2L229.7 201.1L229.6 202.1L229.5 203.1L229.3 204.1L229.1 205L229 206L228.8 207.1L228.6 208.1L228.4 209.1L228.1 210.1L227.9 211.1L227.6 212.2L227.3 213.2L227 214.3L226.7 215.3L226.4 216.4L226 217.4L225.7 218.5L225.3 219.6L224.9 220.6L224.5 221.7L224.1 222.8L223.6 223.8L223.2 224.9L222.7 226L222.2 227.1L221.7 228.1L221.1 229.2L220.6 230.3L220 231.4L219.4 232.5L218.8 233.5L218.2 234.6L217.5 235.7L216.9 236.8L216.2 237.8L215.5 238.9L214.8 240L214 241L213.3 242.1L212.5 243.1L211.7 244.2L210.9 245.2L210 246.3L209.2 247.3L208.3 248.3L207.4 249.3L206.5 250.3L205.6 251.4L204.6 252.3L203.7 253.3L202.7 254.3L201.7 255.3L200.6 256.2L199.6 257.2L198.5 258.1L197.4 259.1L196.3 260L195.2 260.9L194.1 261.8L192.9 262.7L191.7 263.5L190.6 264.4L189.3 265.2L188.1 266.1L186.9 266.9L185.6 267.7L184.3 268.5L183 269.3L181.7 270L180.4 270.8L179 271.5L177.7 272.2L176.3 272.9L174.9 273.6L173.5 274.2L172.1 274.9L170.7 275.5L169.2 276.1L167.7 276.7L166.3 277.2L164.8 277.8L163.3 278.3L161.7 278.8L160.2 279.3L158.7 279.7L157.1 280.2L155.5 280.6L154 281L152.4 281.4L150.8 281.7L149.2 282.1L147.6 282.4L145.9 282.7L144.3 282.9L142.6 283.2L141 283.4L139.3 283.6L137.7 283.8L136 283.9L134.3 284L132.6 284.1L130.9 284.2H129.2L127.5 284.3H125.8L124.1 284.2H122.4L120.6 284.1L118.9 284L117.2 283.9L115.4 283.7L113.7 283.5L112 283.3L110.2 283.1L108.5 282.8L106.8 282.5L105 282.2L103.3 281.9L101.6 281.5L99.9002 281.1L98.1002 280.7L96.4002 280.3L94.7002 279.8L93.0002 279.3L91.3002 278.8L89.6002 278.2L87.9002 277.7L86.2002 277.1L84.5002 276.4L82.8002 275.8L81.1002 275.1L79.5002 274.4L77.8002 273.7L76.2002 272.9L74.5002 272.1L72.9002 271.3L71.3002 270.5L69.7002 269.6L68.1002 268.7L66.5002 267.8L64.9002 266.9L63.3002 265.9L61.8002 264.9L60.2002 263.9L58.7002 262.9L57.2002 261.8L55.7002 260.8L54.2002 259.7L52.8002 258.5L51.3002 257.4L49.9002 256.2L48.5002 255L47.1002 253.8L45.7002 252.6L44.3002 251.3L43.0002 250L41.6002 248.7L40.3002 247.4L39.0002 246.1L37.8002 244.7L36.5002 243.3L35.3002 241.9L34.1002 240.5L32.9002 239.1L31.7002 237.6L30.6002 236.2L29.4002 234.7L28.3002 233.2L27.2002 231.6L26.2002 230.1L25.2002 228.5L24.1002 227L23.1002 225.4L22.2002 223.8L21.2002 222.2L20.3002 220.5L19.4002 218.9L18.6002 217.2L17.7002 215.6L16.9002 213.9L16.1002 212.2L15.3002 210.5L14.6002 208.8L13.9002 207.1L13.2002 205.3L12.5002 203.6L11.9002 201.8L11.3002 200.1L10.7002 198.3L10.1002 196.5L9.6002 194.7L9.1002 192.9L8.6002 191.1L8.2002 189.3L7.7002 187.5L7.4002 185.7L7.0002 183.9L6.6002 182.1L6.3002 180.3L6.0002 178.4L5.8002 176.6L5.6002 174.8L5.4002 172.9L5.2002 171.1L5.0002 169.3L4.9002 167.4L4.8002 165.6V163.8L4.7002 161.9V160.1V158.3L4.8002 156.4V154.6L4.9002 152.8L5.1002 151L5.2002 149.2L5.4002 147.4L5.6002 145.6L5.8002 143.8L6.1002 142L6.4002 140.2L6.7002 138.4L7.0002 136.7L7.4002 134.9L7.8002 133.2L8.2002 131.4L8.6002 129.7L9.1002 128L9.6002 126.3L10.1002 124.6L10.6002 122.9L11.2002 121.2L11.7002 119.5L12.3002 117.9L13.0002 116.3L13.6002 114.6L14.3002 113L15.0002 111.4L15.7002 109.8L16.4002 108.3L17.2002 106.7L18.0002 105.2L18.8002 103.6L19.6002 102.1L20.5002 100.6L21.3002 99.2L22.2002 97.7L23.1002 96.3L24.0002 94.8L24.9002 93.4L25.9002 92L26.9002 90.7L27.9002 89.3L28.9002 88L29.9002 86.7L30.9002 85.4L32.0002 84.1L33.1002 82.8L34.1002 81.6L35.2002 80.4L36.4002 79.2L37.5002 78L38.6002 76.8L39.8002 75.7L40.9002 74.6L42.1002 73.5L43.3002 72.4L44.5002 71.3L45.7002 70.3L46.9002 69.3L48.2002 68.3L49.4002 67.3L50.7002 66.4L51.9002 65.5L53.2002 64.6L54.5002 63.7L55.8002 62.8L57.0002 62L58.3002 61.2L59.6002 60.4L61.0002 59.6L62.3002 58.9L63.6002 58.1L64.9002 57.4L66.2002 56.8L67.6002 56.1L68.9002 55.5L70.2002 54.8L71.6002 54.2L72.9002 53.7L74.3002 53.1L75.6002 52.6L77.0002 52.1L78.3002 51.6L79.7002 51.1L81.0002 50.7L82.3002 50.3L83.7002 49.9L85.0002 49.5L86.4002 49.1L87.7002 48.8L89.0002 48.5L90.4002 48.2L91.7002 47.9L93.0002 47.6L94.4002 47.4L95.7002 47.2L97.0002 47L98.3002 46.8L99.6002 46.6L100.9 46.5L102.2 46.4L103.5 46.3L104.8 46.2L106 46.1H107.3L108.6 46H109.8H111.1L112.3 46.1H113.5H114.7L115.9 46.2L117.1 46.3L118.3 46.4L119.5 46.5L120.7 46.6L121.8 46.8L123 46.9L124.1 47.1L125.3 47.3L126.4 47.5L127.5 47.7L128.6 47.9L129.7 48.2L130.7 48.4L131.8 48.7L132.8 48.9L133.9 49.2L134.9 49.5L135.9 49.8L136.9 50.1L137.9 50.5L138.9 50.8L139.8 51.1L140.8 51.5L141.7 51.8L142.6 52.2L143.5 52.6L144.4 53L145.3 53.4L146.2 53.8L147.1 54.2L147.9 54.6L148.7 55L149.6 55.4L150.4 55.8L151.2 56.3L151.9 56.7L152.7 57.1L153.5 57.6L154.2 58L154.9 58.5L155.7 58.9L156.4 59.4L157 59.9L157.7 60.3L158.4 60.8L159 61.2L159.7 61.7L160.3 62.2L160.9 62.6L161.5 63.1L162.1 63.6L162.7 64L163.3 64.5L163.8 65L164.4 65.4L164.9 65.9L165.5 66.4L166 66.8L166.5 67.3L167 67.8L167.5 68.2L167.9 68.7L168.4 69.1L168.9 69.6L169.3 70L169.7 70.4L170.2 70.9L170.6 71.3L171 71.7L171.4 72.2L171.8 72.6L172.2 73L172.6 73.4L172.9 73.8L173.3 74.2L173.6 74.6L174 75L174.3 75.4L174.7 75.7L175 76.1L175.3 76.5L175.6 76.8L176 77.2L176.3 77.6L176.6 77.9L176.9 78.2L177.2 78.6L177.5 78.9L177.8 79.2L178 79.5L178.3 79.8L178.6 80.1L178.9 80.4L179.2 80.7L179.4 81L179.7 81.3L180 81.5L180.3 81.8L180.5 82L180.8 82.3L181.1 82.5L181.3 82.8L181.6 83L181.9 83.2L182.1 83.4L182.4 83.6L182.7 83.8L182.9 84L183.2 84.2L183.5 84.4L183.8 84.6L184 84.8L184.3 84.9L184.6 85.1L184.9 85.3L185.2 85.4L185.5 85.6L185.8 85.7L186.1 85.9L186.4 86L186.7 86.1L187 86.3L187.3 86.4L187.7 86.5L188 86.6L188.3 86.7L188.7 86.9L189 87L189.4 87.1L189.7 87.2L190.1 87.3L190.5 87.4L190.9 87.5L191.2 87.6L191.6 87.7L192 87.8L192.4 87.9H192.8L193.3 88L193.7 88.1L194.1 88.2L194.6 88.3L195 88.4L195.5 88.5L195.9 88.6L196.4 88.7L196.9 88.8L197.4 88.9L197.9 89L198.4 89.1L198.9 89.2L199.4 89.3L199.9 89.4L200.5 89.5L201 89.7L201.6 89.8L202.1 89.9L202.7 90.1L203.2 90.2L203.8 90.3L204.4 90.5L205 90.7L205.6 90.8L206.2 91L206.9 91.2L207.5 91.3L208.1 91.5L208.8 91.7L209.4 91.9L210.1 92.2L210.7 92.4L211.4 92.6L212.1 92.9L212.8 93.1L213.4 93.4L214.1 93.6L214.8 93.9L215.5 94.2L216.3 94.5L217 94.8L217.7 95.1L218.4 95.5L219.2 95.8L219.9 96.2L220.6 96.5L221.4 96.9L222.1 97.3L222.9 97.7L223.7 98.1L224.4 98.5L225.2 99L225.9 99.4L226.7 99.9L227.5 100.4L228.3 100.9L229 101.4L229.8 101.9L230.6 102.5L231.4 103L232.2 103.6L232.9 104.2L233.7 104.8L234.5 105.4L235.3 106L236.1 106.6L236.8 107.3L237.6 108L238.4 108.7L239.2 109.4L239.9 110.1L240.7 110.8L241.5 111.6L242.2 112.4L243 113.1L243.7 113.9L244.5 114.8L245.2 115.6L246 116.4L246.7 117.3L247.4 118.2L248.1 119.1L248.8 120L249.5 120.9L250.2 121.9L250.9 122.8L251.6 123.8L252.3 124.8L253 125.8L253.6 126.8L254.3 127.9L254.9 128.9L255.5 130L256.1 131.1L256.7 132.2L257.3 133.3L257.9 134.4L258.5 135.6L259 136.8L259.6 137.9L260.1 139.1L260.6 140.3L261.1 141.6L261.6 142.8L262.1 144L262.5 145.3L263 146.6L263.4 147.9L263.8 149.2L264.2 150.5L264.6 151.8L265 153.1L265.3 154.5L265.6 155.9L265.9 157.2L266.2 158.6L266.5 160L266.8 161.4L267 162.8L267.2 164.3L267.4 165.7L267.6 167.1L267.8 168.6L267.9 170.1L268 171.5L268.1 173L268.2 174.5L268.3 176V177.5V179V180.5V182.1L268.2 183.6L268.1 185.1L268 186.7L267.9 188.2L267.8 189.8L267.6 191.3L267.4 192.9L267.2 194.4L267 196L266.7 197.6L266.4 199.1L266.1 200.7L265.8 202.3L265.4 203.8L265 205.4L264.6 207L264.2 208.5L263.8 210.1L263.3 211.7L262.8 213.2L262.3 214.8L261.7 216.3L261.1 217.9L260.5 219.4L259.9 221L259.3 222.5L258.6 224.1L257.9 225.6L257.2 227.1L256.4 228.6L255.6 230.1L254.9 231.6L254 233.1L253.2 234.6L252.3 236.1L251.4 237.6L250.5 239L249.6 240.5L248.6 241.9L247.6 243.3L246.6 244.8L245.6 246.2L244.5 247.5L243.5 248.9L242.4 250.3L241.2 251.6L240.1 253L238.9 254.3L237.7 255.6L236.5 256.9L235.3 258.2L234 259.5L232.7 260.7L231.5 261.9L230.1 263.1L228.8 264.3L227.4 265.5L226.1 266.7L224.7 267.8L223.3 268.9L221.8 270L220.4 271.1L218.9 272.2L217.4 273.2L215.9 274.2L214.4 275.2L212.8 276.2L211.3 277.2L209.7 278.1L208.1 279L206.5 279.9L204.9 280.8L203.3 281.6L201.6 282.4L200 283.2L198.3 284L196.6 284.7L194.9 285.5L193.2 286.1L191.5 286.8L189.7 287.5L188 288.1L186.2 288.7L184.5 289.3L182.7 289.8L180.9 290.3L179.1 290.8L177.3 291.3L175.5 291.7L173.7 292.1L171.9 292.5L170 292.9L168.2 293.2L166.4 293.5L164.5 293.8L162.7 294L160.8 294.2L158.9 294.4L157.1 294.6L155.2 294.7L153.4 294.8L151.5 294.9L149.6 295H147.7H145.9H144L142.1 294.9L140.3 294.8L138.4 294.7L136.5 294.6L134.7 294.4L132.8 294.2L131 294L129.1 293.7L127.3 293.4L125.4 293.1L123.6 292.8L121.8 292.4L119.9 292L118.1 291.6L116.3 291.2L114.5 290.7L112.7 290.2L110.9 289.7L109.2 289.1L107.4 288.6L105.7 288L103.9 287.3L102.2 286.7L100.5 286L98.7002 285.3L97.1002 284.6L95.4002 283.8L93.7002 283.1L92.0002 282.3L90.4002 281.4L88.8002 280.6L87.1002 279.7L85.5002 278.8L84.0002 277.9L82.4002 277L80.8002 276L79.3002 275L77.8002 274L76.3002 273L74.8002 272L73.3002 270.9L71.9002 269.8L70.5002 268.7L69.0002 267.6L67.7002 266.4L66.3002 265.3L64.9002 264.1L63.6002 262.9L62.3002 261.7L61.0002 260.4L59.7002 259.2L58.5002 257.9L57.2002 256.6L56.0002 255.4L54.8002 254L53.7002 252.7L52.5002 251.4L51.4002 250L50.3002 248.6L49.3002 247.3L48.2002 245.9L47.2002 244.5L46.2002 243L45.2002 241.6L44.2002 240.2L43.3002 238.7L42.4002 237.3L41.5002 235.8L40.6002 234.3L39.8002 232.8L39.0002 231.3L38.2002 229.8L37.4002 228.3L36.7002 226.8L36.0002 225.3L35.3002 223.7L34.6002 222.2L34.0002 220.7L33.3002 219.1L32.8002 217.6L32.2002 216L31.6002 214.5L31.1002 212.9L30.6002 211.3L30.1002 209.8L29.7002 208.2L29.3002 206.6L28.9002 205.1L28.5002 203.5L28.2002 201.9L27.8002 200.4L27.5002 198.8L27.2002 197.2L27.0002 195.7L26.8002 194.1L26.5002 192.6L26.4002 191L26.2002 189.5L26.1002 187.9L25.9002 186.4V184.8L25.8002 183.3L25.7002 181.8V180.2V178.7V177.2L25.8002 175.7V174.2L25.9002 172.7L26.0002 171.2L26.1002 169.8L26.3002 168.3L26.4002 166.9L26.6002 165.4L26.8002 164L27.0002 162.5L27.3002 161.1L27.5002 159.7L27.8002 158.3L28.1002 156.9L28.4002 155.6L28.8002 154.2L29.1002 152.9L29.5002 151.5L29.9002 150.2L30.3002 148.9L30.7002 147.6L31.1002 146.3L31.6002 145L32.0002 143.8L32.5002 142.5L33.0002 141.3L33.5002 140.1L34.0002 138.9L34.5002 137.7L35.1002 136.5L35.6002 135.4L36.2002 134.2L36.8002 133.1L37.4002 132L38.0002 130.9L38.6002 129.8L39.2002 128.7L39.9002 127.7L40.5002 126.6L41.2002 125.6L41.9002 124.6L42.5002 123.6L43.2002 122.6L43.9002 121.7L44.6002 120.7L45.3002 119.8L46.0002 118.9L46.7002 118L47.5002 117.1L48.2002 116.3L48.9002 115.4L49.7002 114.6L50.4002 113.8L51.2002 113L51.9002 112.2L52.7002 111.4L53.5002 110.7L54.2002 109.9L55.0002 109.2L55.8002 108.5L56.5002 107.8L57.3002 107.2L58.1002 106.5L58.9002 105.9L59.7002 105.3L60.4002 104.6L61.2002 104L62.0002 103.5L62.8002 102.9L63.6002 102.4L64.3002 101.8L65.1002 101.3L65.9002 100.8L66.7002 100.3L67.4002 99.8L68.2002 99.3L69.0002 98.9L69.7002 98.5L70.5002 98L71.3002 97.6L72.0002 97.2L72.8002 96.8L73.5002 96.4L74.3002 96.1L75.0002 95.7L75.7002 95.4L76.5002 95.1L77.2002 94.7L77.9002 94.4L78.6002 94.1L79.3002 93.9L80.0002 93.6L80.7002 93.3L81.4002 93.1L82.1002 92.8L82.7002 92.6L83.4002 92.3L84.1002 92.1L84.7002 91.9L85.4002 91.7L86.0002 91.5L86.6002 91.3L87.3002 91.1L87.9002 91L88.5002 90.8L89.1002 90.6L89.7002 90.5L90.3002 90.3L90.9002 90.2L91.4002 90L92.0002 89.9L92.6002 89.8L93.1002 89.6L93.7002 89.5L94.2002 89.4L94.7002 89.3L95.2002 89.2L95.7002 89.1L96.2002 89L96.7002 88.9L97.2002 88.8L97.7002 88.7L98.2002 88.6L98.6002 88.5L99.1002 88.4L99.5002 88.3L100 88.2L100.4 88.1L100.8 88L101.2 87.9L101.6 87.8L102.1 87.7L102.4 87.6H102.8L103.2 87.5L103.6 87.4L104 87.3L104.3 87.2L104.7 87.1L105 86.9L105.4 86.8L105.7 86.7L106.1 86.6L106.4 86.5L106.7 86.4L107 86.2L107.4 86.1L107.7 86L108 85.8L108.3 85.7L108.6 85.6L108.9 85.4L109.2 85.2L109.4 85.1L109.7 84.9L110 84.7L110.3 84.6L110.6 84.4L110.8 84.2L111.1 84L111.4 83.8L111.7 83.6L111.9 83.4L112.2 83.2L112.5 82.9L112.7 82.7L113 82.5L113.3 82.2L113.5 82L113.8 81.7L114.1 81.5L114.3 81.2L114.6 80.9L114.9 80.6L115.2 80.4L115.4 80.1L115.7 79.8L116 79.5L116.3 79.1L116.6 78.8L116.9 78.5L117.2 78.2L117.5 77.8L117.8 77.5L118.1 77.1L118.4 76.8L118.7 76.4L119.1 76L119.4 75.7L119.7 75.3L120.1 74.9L120.4 74.5L120.8 74.1L121.2 73.7L121.5 73.3L121.9 72.9L122.3 72.5L122.7 72.1L123.1 71.6L123.5 71.2L123.9 70.8L124.4 70.3L124.8 69.9L125.2 69.5L125.7 69L126.2 68.6L126.6 68.1L127.1 67.7L127.6 67.2L128.1 66.7L128.6 66.3L129.2 65.8L129.7 65.4L130.3 64.9L130.8 64.4L131.4 64L132 63.5L132.6 63L133.2 62.6L133.8 62.1L134.4 61.6L135.1 61.2L135.7 60.7L136.4 60.2L137.1 59.8L137.8 59.3L138.5 58.8L139.2 58.4L139.9 57.9L140.7 57.5L141.4 57.1L142.2 56.6L143 56.2L143.8 55.7L144.6 55.3L145.4 54.9L146.3 54.5L147.1 54.1L148 53.7L148.9 53.3L149.7 52.9L150.6 52.5L151.6 52.1L152.5 51.8L153.4 51.4L154.4 51.1L155.3 50.7L156.3 50.4L157.3 50.1L158.3 49.8L159.3 49.5L160.3 49.2L161.4 48.9L162.4 48.6L163.5 48.4L164.6 48.1L165.7 47.9L166.7 47.7L167.9 47.4L169 47.2L170.1 47.1L171.2 46.9L172.4 46.7L173.6 46.6L174.7 46.5L175.9 46.4L177.1 46.3L178.3 46.2L179.5 46.1H180.7L182 46H183.2H184.4L185.7 46.1H187H188.2L189.5 46.2L190.8 46.3L192.1 46.4L193.4 46.5L194.7 46.7L196 46.8L197.3 47L198.6 47.2L199.9 47.4L201.2 47.7L202.6 47.9L203.9 48.2L205.2 48.5L206.6 48.9L207.9 49.2L209.2 49.6L210.6 49.9L211.9 50.3L213.3 50.8L214.6 51.2L216 51.7L217.3 52.2L218.7 52.7L220 53.2L221.4 53.8L222.7 54.4L224 55L225.4 55.6L226.7 56.2L228 56.9L229.4 57.6L230.7 58.3L232 59L233.3 59.8L234.6 60.5L235.9 61.3L237.2 62.2L238.5 63L239.8 63.9L241.1 64.8L242.3 65.7L243.6 66.6L244.8 67.5L246.1 68.5L247.3 69.5L248.5 70.5L249.7 71.6L250.9 72.6L252.1 73.7L253.3 74.8L254.5 75.9L255.6 77.1L256.7 78.2L257.9 79.4L259 80.6L260.1 81.8L261.2 83.1L262.2 84.3L263.3 85.6L264.3 86.9L265.3 88.2L266.3 89.6L267.3 90.9L268.3 92.3L269.2 93.7L270.2 95.1L271.1 96.6L272 98L272.9 99.5L273.7 100.9L274.6 102.4L275.4 104L276.2 105.5L276.9 107L277.7 108.6L278.4 110.2L279.2 111.7L279.8 113.3L280.5 115L281.2 116.6L281.8 118.2L282.4 119.9L283 121.6L283.5 123.2L284 124.9L284.5 126.6L285 128.3L285.5 130.1L285.9 131.8L286.3 133.5L286.7 135.3L287.1 137L287.4 138.8L287.7 140.6L288 142.4L288.2 144.1L288.4 145.9L288.6 147.7L288.8 149.5L289 151.4L289.1 153.2L289.2 155V156.8L289.3 158.6V160.5V162.3L289.2 164.1V166L289.1 167.8L288.9 169.6L288.8 171.5L288.6 173.3L288.4 175.1L288.2 177L287.9 178.8L287.6 180.6L287.3 182.5L286.9 184.3L286.6 186.1L286.2 187.9L285.7 189.7L285.3 191.5L284.8 193.3L284.3 195.1L283.8 196.9L283.2 198.7L282.6 200.4L282 202.2L281.3 203.9L280.7 205.7L280 207.4L279.3 209.1L278.5 210.9L277.7 212.6L276.9 214.2L276.1 215.9L275.3 217.6L274.4 219.2L273.5 220.9L272.6 222.5L271.6 224.1L270.7 225.7L269.7 227.3L268.6 228.9L267.6 230.4L266.5 232L265.4 233.5L264.3 235L263.2 236.5L262.1 237.9L260.9 239.4L259.7 240.8L258.5 242.2L257.2 243.6L256 245L254.7 246.4L253.4 247.7L252.1 249L250.8 250.3L249.4 251.6L248 252.8L246.6 254.1L245.2 255.3L243.8 256.5L242.4 257.6L240.9 258.8L239.5 259.9L238 261L236.5 262.1L235 263.1L233.4 264.1L231.9 265.1L230.3 266.1L228.8 267.1L227.2 268L225.6 268.9L224 269.8L222.4 270.6L220.8 271.5L219.1 272.3L217.5 273L215.9 273.8L214.2 274.5L212.5 275.2L210.9 275.9L209.2 276.6L207.5 277.2L205.8 277.8L204.1 278.3L202.4 278.9L200.7 279.4L199 279.9L197.2 280.4L195.5 280.8L193.8 281.2L192.1 281.6L190.3 282L188.6 282.3L186.9 282.6L185.1 282.9L183.4 283.1L181.7 283.4L179.9 283.6L178.2 283.8L176.5 283.9L174.7 284L173 284.1L171.3 284.2H169.6L167.9 284.3H166.2L164.4 284.2H162.7L161.1 284.1L159.4 284L157.7 283.9L156 283.7L154.3 283.6L152.7 283.4L151 283.1L149.4 282.9L147.7 282.6L146.1 282.3L144.5 282L142.9 281.7L141.3 281.3L139.7 280.9L138.1 280.5L136.6 280.1L135 279.7L133.5 279.2L131.9 278.7L130.4 278.2L128.9 277.7L127.4 277.1L126 276.5L124.5 276L123.1 275.4L121.6 274.7L120.2 274.1L118.8 273.4L117.4 272.7L116 272L114.7 271.3L113.3 270.6L112 269.9L110.7 269.1L109.4 268.3L108.1 267.5L106.9 266.7L105.6 265.9L104.4 265.1L103.2 264.2L102 263.4L100.8 262.5L99.7002 261.6L98.6002 260.7L97.4002 259.8L96.3002 258.9L95.3002 257.9L94.2002 257L93.2002 256.1L92.1002 255.1L91.1002 254.1L90.1002 253.1L89.2002 252.1L88.2002 251.1L87.3002 250.1L86.4002 249.1L85.5002 248.1L84.6002 247.1L83.8002 246.1L82.9002 245L82.1002 244L81.3002 242.9L80.6002 241.9L79.8002 240.8L79.1002 239.8L78.4002 238.7L77.7002 237.6L77.0002 236.5L76.3002 235.5L75.7002 234.4L75.1002 233.3L74.4002 232.2L73.9002 231.2L73.3002 230.1L72.7002 229L72.2002 227.9L71.7002 226.8L71.2002 225.8L70.7002 224.7L70.3002 223.6L69.8002 222.5L69.4002 221.5L69.0002 220.4L68.6002 219.3L68.2002 218.3L67.9002 217.2L67.5002 216.2L67.2002 215.1L66.9002 214.1L66.6002 213L66.3002 212L66.1002 210.9L65.8002 209.9L65.6002 208.9L65.4002 207.9L65.2002 206.9L65.0002 205.8L64.8002 204.8L64.7002 203.9L64.5002 202.9L64.4002 201.9L64.3002 200.9L64.2002 200L64.1002 199L64.0002 198.1L63.9002 197.1V196.2L63.8002 195.3V194.3L63.7002 193.4V192.5V191.7V190.8V189.9L63.8002 189.1V188.2V187.4L63.9002 186.5L64.0002 185.7V184.9L64.1002 184.1L64.2002 183.3L64.3002 182.5L64.4002 181.8L64.5002 181L64.6002 180.2L64.7002 179.5L64.8002 178.8L64.9002 178.1L65.1002 177.4L65.2002 176.7L65.3002 176L65.5002 175.3L65.6002 174.6L65.8002 174L65.9002 173.3L66.1002 172.7L66.2002 172L66.4002 171.4L66.5002 170.8L66.7002 170.2L66.9002 169.6L67.0002 169L67.2002 168.5L67.4002 167.9L67.5002 167.4L67.7002 166.8L67.9002 166.3L68.0002 165.8L68.2002 165.2L68.3002 164.7L68.5002 164.2L68.7002 163.7L68.8002 163.3L69.0002 162.8L69.1002 162.3L69.3002 161.9L69.4002 161.4L69.6002 161L69.7002 160.5L69.9002 160.1L70.0002 159.7L70.2002 159.2L70.3002 158.8L70.4002 158.4L70.5002 158L70.7002 157.6L70.8002 157.3L70.9002 156.9L71.0002 156.5L71.1002 156.1L71.2002 155.7L71.3002 155.4L71.4002 155V154.7L71.5002 154.3L71.6002 154L71.7002 153.6V153.3L71.8002 152.9V152.6L71.9002 152.3V151.9V151.6L72.0002 151.3V150.9V150.6V150.3V149.9V149.6V149.3V148.9L71.9002 148.6V148.3V147.9L71.8002 147.6V147.3V146.9L71.7002 146.6L71.6002 146.2V145.9L71.5002 145.5L71.4002 145.2L71.3002 144.8L71.2002 144.5L71.1002 144.1L71.0002 143.7L70.9002 143.4L70.8002 143L70.7002 142.6L70.6002 142.2L70.5002 141.8L70.4002 141.4L70.2002 141L70.1002 140.6L70.0002 140.2L69.8002 139.7L69.7002 139.3L69.5002 138.9L69.4002 138.4L69.2002 138L69.1002 137.5L68.9002 137L68.8002 136.5L68.6002 136.1L68.4002 135.6L68.3002 135.1L68.1002 134.6L67.9002 134L67.8002 133.5L67.6002 133L67.5002 132.4L67.3002 131.9L67.1002 131.3L67.0002 130.7L66.8002 130.1L66.6002 129.5L66.5002 128.9L66.3002 128.3L66.2002 127.7L66.0002 127.1L65.8002 126.4L65.7002 125.8L65.5002 125.1L65.4002 124.4L65.3002 123.8L65.1002 123.1L65.0002 122.4L64.9002 121.6L64.8002 120.9L64.6002 120.2L64.5002 119.4L64.4002 118.7L64.3002 117.9L64.2002 117.2L64.1002 116.4V115.6L64.0002 114.8L63.9002 114V113.1L63.8002 112.3V111.4V110.6L63.7002 109.7V108.9V108V107.1L63.8002 106.2V105.3V104.4L63.9002 103.4V102.5L64.0002 101.6L64.1002 100.6L64.2002 99.7L64.3002 98.7L64.4002 97.7L64.6002 96.7L64.7002 95.7L64.9002 94.7L65.1002 93.7L65.3002 92.7L65.5002 91.7L65.7002 90.7L65.9002 89.7L66.2002 88.6L66.5002 87.6L66.7002 86.6L67.0002 85.5L67.3002 84.5L67.7002 83.4L68.0002 82.4L68.4002 81.3L68.8002 80.2L69.2002 79.2L69.6002 78.1L70.0002 77L70.5002 75.9L70.9002 74.9L71.4002 73.8L71.9002 72.7L72.4002 71.6L73.0002 70.6L73.5002 69.5L74.1002 68.4L74.7002 67.3L75.3002 66.2L75.9002 65.2L76.6002 64.1L77.3002 63L77.9002 61.9L78.6002 60.9L79.4002 59.8L80.1002 58.8L80.9002 57.7L81.7002 56.6L82.5002 55.6L83.3002 54.6L84.1002 53.5L85.0002 52.5L85.9002 51.5L86.8002 50.5L87.7002 49.4L88.6002 48.4L89.6002 47.4L90.5002 46.5L91.5002 45.5L92.6002 44.5L93.6002 43.6L94.6002 42.6L95.7002 41.7L96.8002 40.7L97.9002 39.8L99.0002 38.9L100.2 38L101.3 37.2L102.5 36.3L103.7 35.4L104.9 34.6L106.1 33.8L107.4 32.9L108.7 32.1L109.9 31.4L111.2 30.6L112.5 29.8L113.9 29.1L115.2 28.4L116.6 27.7L118 27L119.4 26.3L120.8 25.7L122.2 25L123.6 24.4L125.1 23.8L126.6 23.2L128 22.7L129.5 22.1L131 21.6L132.6 21.1L134.1 20.6L135.6 20.2L137.2 19.7L138.8 19.3L140.4 18.9L141.9 18.5L143.5 18.2L145.2 17.9L146.8 17.6L148.4 17.3L150 17L151.7 16.8L153.4 16.6L155 16.4L156.7 16.2L158.4 16.1L160.1 15.9H161.7L163.4 15.8L165.1 15.7H166.9H168.6L170.3 15.8H172L173.7 15.9L175.4 16L177.2 16.2L178.9 16.3L180.6 16.5L182.4 16.7L184.1 17L185.8 17.2L187.6 17.5L189.3 17.8L191 18.2L192.8 18.5L194.5 18.9L196.2 19.4L197.9 19.8L199.7 20.3L201.4 20.8L203.1 21.3L204.8 21.9L206.5 22.5L208.2 23.1L209.9 23.7L211.5 24.4L213.2 25.1L214.9 25.8L216.5 26.5L218.2 27.3L219.8 28.1L221.4 28.9L223.1 29.7L224.7 30.6L226.3 31.5L227.8 32.4L229.4 33.3L231 34.3L232.5 35.3L234.1 36.3L235.6 37.3L237.1 38.4L238.6 39.5L240.1 40.6L241.5 41.7L243 42.8L244.4 44L245.8 45.2L247.2 46.4L248.6 47.7L250 48.9L251.3 50.2L252.6 51.5L253.9 52.8L255.2 54.2L256.5 55.6L257.7 56.9L259 58.3L260.2 59.8L261.4 61.2L262.5 62.7L263.7 64.1L264.8 65.6L265.9 67.1L267 68.7L268 70.2L269.1 71.8L270.1 73.3L271.1 74.9L272 76.5L272.9 78.2L273.9 79.8L274.8 81.4L275.6 83.1L276.5 84.8L277.3 86.4L278.1 88.1L278.8 89.8L279.6 91.6L280.3 93.3L281 95L281.6 96.8L282.2 98.5L282.8 100.3L283.4 102.1L284 103.8L284.5 105.6L285 107.4L285.5 109.2L285.9 111L286.3 112.8L286.7 114.6L287.1 116.5L287.4 118.3L287.7 120.1L288 121.9L288.3 123.8L288.5 125.6L288.7 127.4L288.8 129.3L289 131.1L289.1 132.9L289.2 134.8L289.3 136.6V138.4V140.3V142.1L289.2 143.9L289.1 145.8L289 147.6L288.9 149.4L288.7 151.2L288.6 153L288.4 154.8L288.1 156.6L287.9 158.4L287.6 160.1L287.3 161.9L286.9 163.7L286.5 165.4L286.2 167.2L285.7 168.9L285.3 170.6L284.8 172.4L284.3 174.1L283.8 175.8L283.3 177.5L282.7 179.1L282.1 180.8L281.5 182.4L280.9 184.1L280.2 185.7L279.6 187.3L278.9 188.9L278.1 190.5L277.4 192.1L276.6 193.6L275.9 195.1L275 196.7L274.2 198.2L273.4 199.7L272.5 201.1L271.6 202.6L270.7 204L269.8 205.5L268.9 206.9L267.9 208.2L266.9 209.6L265.9 211L264.9 212.3L263.9 213.6L262.9 214.9L261.8 216.2L260.7 217.4L259.6 218.7L258.5 219.9L257.4 221.1L256.3 222.3L255.1 223.4L254 224.5L252.8 225.7L251.6 226.7L250.4 227.8L249.2 228.9L248 229.9L246.8 230.9L245.6 231.9L244.3 232.8L243.1 233.8L241.8 234.7L240.5 235.6L239.3 236.5L238 237.3L236.7 238.2L235.4 239L234.1 239.8L232.8 240.5L231.5 241.3L230.1 242L228.8 242.7L227.5 243.4L226.2 244L224.8 244.7L223.5 245.3L222.1 245.9L220.8 246.4L219.5 247L218.1 247.5L216.8 248L215.4 248.5L214.1 249L212.7 249.4L211.4 249.8L210 250.2L208.7 250.6L207.4 250.9L206 251.3L204.7 251.6L203.3 251.9L202 252.2L200.7 252.4L199.4 252.6L198 252.9L196.7 253.1L195.4 253.2L194.1 253.4L192.8 253.5L191.5 253.6L190.3 253.7L189 253.8L187.7 253.9H186.4L185.2 254H183.9H182.7L181.5 253.9H180.2L179 253.8H177.8L176.6 253.7L175.4 253.6L174.3 253.5L173.1 253.3L171.9 253.2L170.8 253L169.6 252.9L168.5 252.7L167.4 252.5L166.3 252.3L165.2 252L164.1 251.8L163.1 251.5L162 251.3L161 251L159.9 250.7L158.9 250.4L157.9 250.1L156.9 249.8L155.9 249.5L154.9 249.1L154 248.8L153 248.4L152.1 248.1L151.2 247.7L150.3 247.3L149.4 247L148.5 246.6L147.6 246.2L146.8 245.8L145.9 245.3L145.1 244.9L144.3 244.5L143.5 244.1L142.7 243.6L141.9 243.2L141.1 242.8L140.4 242.3L139.6 241.9L138.9 241.4L138.2 241L137.5 240.5L136.8 240.1L136.1 239.6L135.5 239.1L134.8 238.7L134.2 238.2L133.6 237.7L132.9 237.3L132.3 236.8L131.7 236.3L131.2 235.9L130.6 235.4L130 234.9L129.5 234.5L129 234L128.4 233.5L127.9 233.1L127.4 232.6L126.9 232.2L126.4 231.7L126 231.2L125.5 230.8L125.1 230.4L124.6 229.9L124.2 229.5L123.8 229L123.3 228.6L122.9 228.2L122.5 227.8L122.1 227.3L121.8 226.9L121.4 226.5L121 226.1L120.6 225.7L120.3 225.3L119.9 224.9L119.6 224.6L119.3 224.2L118.9 223.8L118.6 223.4L118.3 223.1L118 222.7L117.7 222.4L117.4 222L117.1 221.7L116.8 221.4L116.5 221L116.2 220.7L115.9 220.4L115.6 220.1L115.3 219.8L115.1 219.5L114.8 219.2L114.5 219L114.2 218.7L114 218.4L113.7 218.2L113.4 217.9L113.2 217.7L112.9 217.4L112.6 217.2L112.4 217L112.1 216.7L111.8 216.5L111.5 216.3L111.3 216.1L111 215.9L110.7 215.7L110.5 215.5L110.2 215.4L109.9 215.2L109.6 215L109.3 214.9L109 214.7L108.7 214.5L108.4 214.4L108.1 214.2L107.8 214.1L107.5 214L107.2 213.8L106.9 213.7L106.6 213.6L106.3 213.5L105.9 213.3L105.6 213.2L105.2 213.1L104.9 213L104.5 212.9L104.2 212.8L103.8 212.7L103.4 212.6L103.1 212.5L102.7 212.4L102.3 212.3L101.9 212.2L101.5 212.1L101.1 212L100.6 211.9H100.2L99.8002 211.8L99.3002 211.7L98.9002 211.6L98.4002 211.5L98.0002 211.4L97.5002 211.3L97.0002 211.2L96.5002 211.1L96.0002 211L95.5002 210.9L95.0002 210.8L94.5002 210.7L94.0002 210.5L93.4002 210.4L92.9002 210.3L92.3002 210.2L91.8002 210L91.2002 209.9L90.6002 209.8L90.1002 209.6L89.5002 209.5L88.9002 209.3L88.3002 209.1L87.6002 209L87.0002 208.8L86.4002 208.6L85.8002 208.4L85.1002 208.2L84.5002 208L83.8002 207.8L83.1002 207.6L82.5002 207.3L81.8002 207.1L81.1002 206.8L80.4002 206.6L79.7002 206.3L79.0002 206L78.3002 205.7L77.6002 205.4L76.9002 205.1L76.2002 204.8L75.4002 204.5L74.7002 204.1L74.0002 203.8L73.2002 203.4L72.5002 203L71.7002 202.6L71.0002 202.2L70.2002 201.8L69.4002 201.4L68.7002 200.9L67.9002 200.5L67.1002 200L66.4002 199.5L65.6002 199L64.8002 198.5L64.0002 198L63.2002 197.4L62.5002 196.9L61.7002 196.3L60.9002 195.7L60.1002 195.1L59.3002 194.5L58.6002 193.9L57.8002 193.2L57.0002 192.6L56.2002 191.9L55.5002 191.2L54.7002 190.5L53.9002 189.8L53.2002 189L52.4002 188.3L51.6002 187.5L50.9002 186.7L50.1002 185.9L49.4002 185.1L48.6002 184.2L47.9002 183.4L47.2002 182.5L46.4002 181.6L45.7002 180.7L45.0002 179.8L44.3002 178.9L43.6002 177.9L42.9002 177L42.2002 176L41.6002 175L40.9002 174L40.3002 173L39.6002 171.9L39.0002 170.8L38.4002 169.8L37.8002 168.7L37.1002 167.6L36.6002 166.5L36.0002 165.3L35.4002 164.2L34.9002 163L34.3002 161.8L33.8002 160.6L33.3002 159.4L32.8002 158.2L32.3002 157L31.8002 155.7L31.4002 154.4L30.9002 153.2L30.5002 151.9L30.1002 150.6L29.7002 149.3L29.3002 147.9L29.0002 146.6L28.6002 145.2L28.3002 143.9L28.0002 142.5L27.7002 141.1L27.4002 139.7L27.2002 138.3L26.9002 136.9L26.7002 135.4L26.5002 134L26.4002 132.6L26.2002 131.1L26.1002 129.6L26.0002 128.2L25.9002 126.7L25.8002 125.2L25.7002 123.7V122.2V120.7V119.1V117.6L25.8002 116.1L25.9002 114.6L26.0002 113L26.1002 111.5L26.3002 109.9L26.4002 108.4L26.6002 106.8L26.8002 105.2L27.1002 103.7L27.4002 102.1L27.6002 100.6L28.0002 99L28.3002 97.4L28.7002 95.9L29.0002 94.3L29.4002 92.7L29.9002 91.2L30.3002 89.6L30.8002 88L31.3002 86.5L31.9002 84.9L32.4002 83.3L33.0002 81.8L33.6002 80.2L34.2002 78.7L34.9002 77.2L35.6002 75.6L36.3002 74.1L37.0002 72.6L37.7002 71.1L38.5002 69.6L39.3002 68.1L40.1002 66.6L41.0002 65.1L41.9002 63.6L42.8002 62.1L43.7002 60.7L44.6002 59.2L45.6002 57.8L46.6002 56.4L47.6002 55L48.6002 53.6L49.7002 52.2L50.8002 50.8L51.9002 49.4L53.0002 48.1L54.2002 46.7L55.3002 45.4L56.5002 44.1L57.7002 42.8L59.0002 41.6L60.2002 40.3L61.5002 39.1L62.8002 37.8L64.1002 36.6L65.5002 35.4L66.8002 34.3L68.2002 33.1L69.6002 32L71.0002 30.8L72.5002 29.8L73.9002 28.7L75.4002 27.6L76.9002 26.6L78.4002 25.6L79.9002 24.6L81.5002 23.6L83.0002 22.6L84.6002 21.7L86.2002 20.8L87.8002 19.9L89.4002 19.1L91.1002 18.2L92.7002 17.4L94.4002 16.6L96.1002 15.9L97.7002 15.1L99.4002 14.4L101.2 13.7L102.9 13L104.6 12.4L106.4 11.8L108.1 11.2L109.9 10.6L111.7 10.1L113.5 9.6L115.3 9.1L117.1 8.6L118.9 8.2L120.7 7.8L122.5 7.4L124.3 7.1L126.2 6.7L128 6.4L129.9 6.2L131.7 5.9L133.6 5.7L135.4 5.5L137.3 5.4L139.2 5.2L141 5.1H142.9L144.8 5H146.6H148.5H150.4L152.2 5.1L154.1 5.2L156 5.3L157.8 5.5L159.7 5.6L161.6 5.8L163.4 6.1L165.3 6.3L167.1 6.6L168.9 6.9L170.8 7.3L172.6 7.6L174.4 8L176.2 8.5L178 8.9L179.8 9.4L181.6 9.9L183.4 10.4L185.2 11L187 11.6L188.7 12.2L190.4 12.8L192.2 13.5L193.9 14.1L195.6 14.8L197.3 15.6L199 16.3L200.6 17.1L202.3 17.9L203.9 18.7L205.6 19.6L207.2 20.5L208.8 21.4L210.4 22.3L211.9 23.2L213.5 24.2L215 25.2L216.5 26.2L218 27.2L219.5 28.3L221 29.3L222.4 30.4L223.8 31.5L225.2 32.7L226.6 33.8L228 35L229.3 36.2L230.7 37.4L232 38.6L233.3 39.8L234.5 41.1L235.8 42.3L237 43.6L238.2 44.9L239.4 46.2L240.5 47.6L241.7 48.9L242.8 50.3L243.9 51.6L245 53L246 54.4L247 55.8L248 57.2L249 58.7L250 60.1L250.9 61.6L251.8 63L252.7 64.5L253.5 66L254.4 67.5L255.2 69L256 70.5L256.7 72L257.5 73.5L258.2 75L258.9 76.6L259.5 78.1L260.2 79.6L260.8 81.2L261.4 82.7L261.9 84.3L262.5 85.9L263 87.4L263.5 89L263.9 90.5L264.4 92.1L264.8 93.7L265.2 95.2L265.6 96.8L265.9 98.4L266.2 99.9L266.5 101.5L266.8 103.1L267.1 104.6L267.3 106.2L267.5 107.8L267.7 109.3L267.8 110.9L268 112.4L268.1 114L268.2 115.5V117L268.3 118.6V120.1V121.6V123.1L268.2 124.6V126.1L268.1 127.6L268 129.1L267.8 130.5L267.7 132L267.5 133.4L267.3 134.9L267.1 136.3L266.9 137.7L266.7 139.2L266.4 140.6L266.1 141.9L265.8 143.3L265.5 144.7L265.2 146.1L264.8 147.4L264.4 148.7L264.1 150.1L263.7 151.4L263.2 152.7L262.8 153.9L262.4 155.2L261.9 156.5L261.4 157.7L260.9 158.9L260.4 160.2L259.9 161.4L259.3 162.5L258.8 163.7L258.2 164.9L257.7 166L257.1 167.1L256.5 168.3L255.9 169.4L255.3 170.4L254.6 171.5L254 172.5L253.3 173.6L252.7 174.6L252 175.6L251.3 176.6L250.7 177.6L250 178.5L249.3 179.5L248.5 180.4L247.8 181.3L247.1 182.2L246.4 183.1L245.7 183.9L244.9 184.8L244.2 185.6L243.4 186.4L242.7 187.2L241.9 188L241.1 188.7L240.4 189.5L239.6 190.2L238.8 190.9L238.1 191.6L237.3 192.3L236.5 193L235.7 193.6L235 194.3L234.2 194.9L233.4 195.5L232.6 196.1L231.8 196.6L231.1 197.2L230.3 197.8L229.5 198.3L228.7 198.8L227.9 199.3L227.2 199.8L226.4 200.3L225.6 200.7L224.9 201.2L224.1 201.6L223.3 202.1L222.6 202.5L221.8 202.9L221.1 203.3L220.3 203.6L219.6 204L218.9 204.3L218.1 204.7L217.4 205L216.7 205.3L216 205.6L215.3 205.9L214.6 206.2L213.9 206.5L213.2 206.7L212.5 207L211.8 207.2L211.1 207.5L210.5 207.7L209.8 207.9L209.1 208.1L208.5 208.3L207.9 208.5L207.2 208.7L206.6 208.9L206 209.1L205.4 209.2L204.8 209.4L204.2 209.6L203.6 209.7L203 209.9L202.4 210L201.9 210.1L201.3 210.3L200.8 210.4L200.2 210.5L199.7 210.6L199.2 210.7L198.7 210.8L198.2 210.9L197.7 211.1L197.2 211.2L196.7 211.3H196.2L195.7 211.4L195.3 211.5L194.8 211.6L194.4 211.7L193.9 211.8L193.5 211.9L193.1 212L192.7 212.1L192.3 212.2L191.9 212.3L191.5 212.4L191.1 212.5L190.7 212.6L190.3 212.7L190 212.8L189.6 212.9L189.2 213L188.9 213.1L188.5 213.2L188.2 213.3L187.9 213.4L187.5 213.5L187.2 213.7L186.9 213.8L186.6 213.9L186.3 214.1L186 214.2L185.7 214.3L185.4 214.5L185.1 214.6L184.8 214.8L184.5 215L184.2 215.1L183.9 215.3L183.7 215.5L183.4 215.7L183.1 215.8L182.8 216L182.6 216.2L182.3 216.4L182 216.7L181.7 216.9L181.5 217.1L181.2 217.3L180.9 217.6L180.7 217.8L180.4 218.1L180.1 218.3L179.9 218.6L179.6 218.9L179.3 219.1L179.1 219.4L178.8 219.7L178.5 220L178.2 220.3L177.9 220.6L177.6 220.9L177.4 221.2L177.1 221.6L176.8 221.9L176.5 222.2L176.1 222.6L175.8 222.9L175.5 223.3L175.2 223.7L174.9 224L174.5 224.4L174.2 224.8L173.8 225.2L173.5 225.6L173.1 226L172.8 226.4L172.4 226.8L172 227.2L171.6 227.6L171.2 228L170.8 228.4L170.4 228.9L170 229.3L169.6 229.7L169.1 230.2L168.7 230.6L168.2 231.1L167.7 231.5L167.3 232L166.8 232.4L166.3 232.9L165.8 233.4L165.2 233.8L164.7 234.3L164.2 234.7L163.6 235.2L163.1 235.7L162.5 236.1L161.9 236.6L161.3 237.1L160.7 237.5L160.1 238L159.4 238.5L158.8 238.9L158.1 239.4L157.4 239.9L156.8 240.3L156.1 240.8L155.4 241.2L154.6 241.7L153.9 242.1L153.2 242.6L152.4 243L151.6 243.5L150.8 243.9L150 244.3L149.2 244.8L148.4 245.2L147.6 245.6L146.7 246L145.8 246.4L145 246.8L144.1 247.2L143.2 247.6L142.3 247.9L141.3 248.3L140.4 248.7L139.4 249L138.5 249.3L137.5 249.7L136.5 250L135.5 250.3L134.5 250.6L133.4 250.9L132.4 251.2L131.4 251.4L130.3 251.7L129.2 251.9L128.1 252.2L127 252.4L125.9 252.6L124.8 252.8L123.7 253L122.5 253.1L121.4 253.3L120.2 253.4L119 253.5L117.8 253.7H116.7L115.5 253.8L114.2 253.9H113L111.8 254H110.6H109.3L108.1 253.9H106.8L105.5 253.8H104.2L103 253.7L101.7 253.6L100.4 253.4L99.1002 253.3L97.8002 253.1L96.5002 252.9L95.1002 252.7L93.8002 252.5L92.5002 252.3L91.2002 252L89.8002 251.7L88.5002 251.4L87.2002 251.1L85.8002 250.7L84.5002 250.4L83.1002 250L81.8002 249.6L80.4002 249.1L79.1002 248.7L77.8002 248.2L76.4002 247.7L75.1002 247.2L73.7002 246.7L72.4002 246.1L71.0002 245.5L69.7002 244.9L68.4002 244.3L67.0002 243.6L65.7002 243L64.4002 242.3L63.0002 241.6L61.7002 240.8L60.4002 240.1L59.1002 239.3L57.8002 238.5L56.5002 237.7L55.2002 236.8L53.9002 236L52.7002 235.1L51.4002 234.2L50.2002 233.2L48.9002 232.3L47.7002 231.3L46.4002 230.3L45.2002 229.3L44.0002 228.2L42.8002 227.2L41.6002 226.1L40.5002 225L39.3002 223.8L38.2002 222.7L37.0002 221.5L35.9002 220.3L34.8002 219.1L33.7002 217.9L32.6002 216.7L31.6002 215.4L30.5002 214.1L29.5002 212.8L28.5002 211.5L27.5002 210.1L26.5002 208.8L25.5002 207.4L24.6002 206L23.6002 204.6L22.7002 203.2L21.8002 201.7L21.0002 200.2L20.1002 198.8L19.3002 197.3L18.5002 195.7L17.7002 194.2L16.9002 192.7L16.1002 191.1L15.4002 189.5L14.7002 187.9L14.0002 186.3L13.4002 184.7L12.7002 183.1L12.1002 181.4L11.5002 179.8L10.9002 178.1L10.4002 176.4L9.9002 174.7L9.4002 173L8.9002 171.3L8.4002 169.6L8.0002 167.9L7.6002 166.1L7.2002 164.4L6.9002 162.6L6.6002 160.8L6.3002 159.1L6.0002 157.3L5.7002 155.5L5.5002 153.7L5.3002 151.9L5.2002 150.1L5.0002 148.3L4.9002 146.5L4.8002 144.6V142.8L4.7002 141V139.2V137.3L4.8002 135.5L4.9002 133.7L5.0002 131.8L5.1002 130L5.3002 128.2L5.4002 126.3L5.7002 124.5L5.9002 122.7L6.2002 120.8L6.5002 119L6.8002 117.2L7.1002 115.4L7.5002 113.5L7.9002 111.7L8.4002 109.9L8.8002 108.1L9.3002 106.3L9.8002 104.5L10.4002 102.8L10.9002 101L11.5002 99.2L12.1002 97.5L12.8002 95.7L13.5002 94L14.2002 92.2L14.9002 90.5L15.6002 88.8L16.4002 87.1L17.2002 85.4L18.1002 83.7L18.9002 82.1L19.8002 80.4L20.7002 78.8L21.6002 77.2L22.6002 75.6L23.5002 74L24.5002 72.4L25.6002 70.8L26.6002 69.3L27.7002 67.7L28.8002 66.2L29.9002 64.7L31.0002 63.2L32.2002 61.8L33.4002 60.3L34.6002 58.9L35.8002 57.5L37.0002 56.1L38.3002 54.7L39.6002 53.4L40.9002 52L42.2002 50.7L43.5002 49.4L44.9002 48.2L46.2002 46.9L47.6002 45.7L49.0002 44.5L50.5002 43.3L51.9002 42.1L53.4002 41L54.8002 39.9L56.3002 38.8L57.8002 37.7L59.3002 36.7L60.9002 35.7L62.4002 34.7L64.0002 33.7L65.5002 32.7L67.1002 31.8L68.7002 30.9L70.3002 30L71.9002 29.2L73.6002 28.4L75.2002 27.6L76.8002 26.8L78.5002 26L80.1002 25.3L81.8002 24.6L83.5002 24L85.2002 23.3L86.9002 22.7L88.6002 22.1L90.3002 21.5L92.0002 21L93.7002 20.5L95.4002 20L97.1002 19.5L98.8002 19.1L100.6 18.7L102.3 18.3L104 18L105.8 17.6L107.5 17.3L109.2 17.1L111 16.8L112.7 16.6L114.4 16.4L116.1 16.2L117.9 16.1L119.6 15.9H121.3L123.1 15.8L124.8 15.7H126.5H128.2L129.9 15.8H131.6L133.3 15.9L135 16L136.7 16.1L138.3 16.3L140 16.5L141.7 16.7L143.3 16.9L145 17.2L146.6 17.4L148.2 17.7L149.8 18.1L151.4 18.4L153 18.8L154.6 19.1L156.2 19.6L157.8 20L159.3 20.4L160.8 20.9L162.4 21.4L163.9 21.9L165.4 22.4L166.9 23L168.3 23.6L169.8 24.2L171.2 24.8L172.7 25.4L174.1 26.1L175.5 26.7L176.9 27.4L178.2 28.1L179.6 28.8L180.9 29.5L182.3 30.3L183.6 31.1L184.9 31.8L186.1 32.6L187.4 33.4L188.6 34.3L189.8 35.1L191 35.9L192.2 36.8L193.4 37.7L194.5 38.6L195.7 39.5L196.8 40.4L197.9 41.3L199 42.2L200 43.2L201.1 44.1L202.1 45.1L203.1 46.1L204.1 47.1L205 48.1L206 49.1L206.9 50.1L207.8 51.1L208.7 52.1L209.5 53.1L210.4 54.2L211.2 55.2L212 56.2L212.8 57.3L213.6 58.3L214.3 59.4L215.1 60.5L215.8 61.5L216.5 62.6L217.2 63.7L217.8 64.7L218.5 65.8L219.1 66.9L219.7 68L220.3 69.1L220.8 70.1L221.4 71.2L221.9 72.3L222.4 73.4L222.9 74.4L223.4 75.5L223.8 76.6L224.3 77.7L224.7 78.7L225.1 79.8L225.5 80.9L225.8 81.9L226.2 83L226.5 84.1L226.8 85.1L227.2 86.2L227.4 87.2L227.7 88.2L228 89.3L228.2 90.3L228.4 91.3L228.7 92.3L228.9 93.4L229 94.4L229.2 95.4L229.4 96.3L229.5 97.3L229.6 98.3L229.8 99.3L229.9 100.2L230 101.2V102.1L230.1 103.1L230.2 104V104.9V105.8L230.3 106.7V107.6V108.5V109.4L230.2 110.3V111.1V112L230.1 112.8V113.6L230 114.5V115.3L229.9 116.1L229.8 116.8L229.7 117.6L229.6 118.4L229.5 119.2L229.4 119.9L229.3 120.6L229.2 121.4L229 122.1L228.9 122.8L228.8 123.5L228.6 124.2L228.5 124.9L228.4 125.5L228.2 126.2L228.1 126.8L227.9 127.5L227.8 128.1L227.6 128.7L227.4 129.3L227.3 129.9L227.1 130.5L226.9 131.1L226.8 131.6L226.6 132.2L226.4 132.8L226.3 133.3L226.1 133.8L225.9 134.4L225.8 134.9L225.6 135.4L225.5 135.9L225.3 136.4L225.1 136.8L225 137.3L224.8 137.8L224.7 138.2L224.5 138.7L224.4 139.1L224.2 139.6L224.1 140L224 140.4L223.8 140.8L223.7 141.2L223.6 141.6L223.4 142L223.3 142.4L223.2 142.8L223.1 143.2L223 143.6L222.9 144L222.8 144.3L222.7 144.7L222.6 145L222.5 145.4V145.8L222.4 146.1L222.3 146.5V146.8L222.2 147.1V147.5L222.1 147.8V148.1V148.5L222 148.8V149.1V149.5V149.8" stroke="#7B61C1" stroke-width="9"/>
</svg>
